<svg width="18" height="18" viewBox="0 0 18 18" fill="none" xmlns="http://www.w3.org/2000/svg">
<path d="M7.26331 8.02956C7.26331 8.02956 8.9664 7.90476 8.9664 5.93349C8.9664 3.96208 7.57305 3 5.80808 3H0.000244141V14.0165H5.80808C5.80808 14.0165 9.35355 14.127 9.35355 10.7649C9.35355 10.765 9.50813 8.02956 7.26331 8.02956ZM5.39004 4.95806H5.80808C5.80808 4.95806 6.59754 4.95806 6.59754 6.10428C6.59754 7.25036 6.13325 7.41652 5.60663 7.41652H2.55925V4.95806H5.39004ZM5.64396 12.0585H2.55925V9.11449H5.80808C5.80808 9.11449 6.98473 9.09926 6.98473 10.6274C6.98473 11.916 6.10589 12.0488 5.64396 12.0585ZM14.0821 5.80292C9.78988 5.80292 9.79368 10.0358 9.79368 10.0358C9.79368 10.0358 9.49918 14.2469 14.0821 14.2469C14.0821 14.2469 17.9011 14.4623 17.9011 11.3175H15.937C15.937 11.3175 16.0025 12.5018 14.1476 12.5018C14.1476 12.5018 12.1832 12.6317 12.1832 10.5851H17.9666C17.9666 10.5851 18.5994 5.80292 14.0821 5.80292ZM12.1616 9.11449C12.1616 9.11449 12.4014 7.41649 14.1257 7.41649C15.8496 7.41649 15.828 9.11449 15.828 9.11449H12.1616ZM16.2855 5.00561H11.6808V3.64901H16.2855V5.00561Z" fill="#A53DFF"/>
</svg>
