<svg width="32" height="32" viewBox="0 0 32 32" fill="none" xmlns="http://www.w3.org/2000/svg">
<path d="M28 18.6668H26.6666V9.3335C26.6666 8.27263 26.2452 7.25521 25.4951 6.50507C24.7449 5.75492 23.7275 5.3335 22.6666 5.3335H9.33329C8.27243 5.3335 7.25501 5.75492 6.50487 6.50507C5.75472 7.25521 5.33329 8.27263 5.33329 9.3335V18.6668H3.99996C3.64634 18.6668 3.3072 18.8073 3.05715 19.0574C2.8071 19.3074 2.66663 19.6465 2.66663 20.0002V22.6668C2.66663 23.7277 3.08805 24.7451 3.8382 25.4953C4.58834 26.2454 5.60576 26.6668 6.66663 26.6668H25.3333C26.3942 26.6668 27.4116 26.2454 28.1617 25.4953C28.9119 24.7451 29.3333 23.7277 29.3333 22.6668V20.0002C29.3333 19.6465 29.1928 19.3074 28.9428 19.0574C28.6927 18.8073 28.3536 18.6668 28 18.6668ZM7.99996 9.3335C7.99996 8.97987 8.14044 8.64074 8.39048 8.39069C8.64053 8.14064 8.97967 8.00016 9.33329 8.00016H22.6666C23.0202 8.00016 23.3594 8.14064 23.6094 8.39069C23.8595 8.64074 24 8.97987 24 9.3335V18.6668H7.99996V9.3335ZM26.6666 22.6668C26.6666 23.0205 26.5262 23.3596 26.2761 23.6096C26.0261 23.8597 25.6869 24.0002 25.3333 24.0002H6.66663C6.313 24.0002 5.97387 23.8597 5.72382 23.6096C5.47377 23.3596 5.33329 23.0205 5.33329 22.6668V21.3335H26.6666V22.6668Z" fill="#A53DFF"/>
</svg>
