<svg width="18" height="18" viewBox="0 0 18 18" fill="none" xmlns="http://www.w3.org/2000/svg">
<g clip-path="url(#clip0_84_68)">
<path d="M0 2.09066C0 1.48459 0.202708 0.98459 0.608108 0.590664C1.01351 0.196719 1.54055 -0.000244141 2.18919 -0.000244141C2.82626 -0.000244141 3.34169 0.193683 3.73552 0.581573C4.14092 0.981572 4.34363 1.50277 4.34363 2.14521C4.34363 2.72702 4.14672 3.21186 3.7529 3.59975C3.3475 3.99975 2.81467 4.19975 2.15444 4.19975H2.13707C1.49999 4.19975 0.984562 3.99975 0.590734 3.59975C0.196905 3.19975 0 2.69671 0 2.09066ZM0.225869 17.9997V5.85429H4.08301V17.9997H0.225869ZM6.22008 17.9997H10.0772V11.2179C10.0772 10.7937 10.1236 10.4664 10.2162 10.2361C10.3784 9.82397 10.6245 9.47548 10.9546 9.19065C11.2847 8.90579 11.6988 8.76338 12.1969 8.76338C13.4942 8.76338 14.1429 9.67852 14.1429 11.5088V17.9997H18V11.0361C18 9.24216 17.5946 7.88156 16.7838 6.95429C15.973 6.02702 14.9016 5.56338 13.5695 5.56338C12.0753 5.56338 10.9112 6.23611 10.0772 7.58156V7.61792H10.0598L10.0772 7.58156V5.85429H6.22008C6.24324 6.24216 6.25483 7.44822 6.25483 9.47247C6.25483 11.4967 6.24324 14.3391 6.22008 17.9997Z" fill="#A53DFF"/>
</g>
<defs>
<clipPath id="clip0_84_68">
<rect width="18" height="18" fill="white"/>
</clipPath>
</defs>
</svg>
