<svg width="32" height="32" viewBox="0 0 32 32" fill="none" xmlns="http://www.w3.org/2000/svg">
<path d="M29.3333 9.65319C29.3343 9.47772 29.3007 9.30377 29.2343 9.14132C29.168 8.97887 29.0702 8.83111 28.9466 8.70653L23.2933 3.05319C23.1687 2.92962 23.021 2.83185 22.8585 2.7655C22.6961 2.69915 22.5221 2.66551 22.3466 2.66653C22.1712 2.66551 21.9972 2.69915 21.8348 2.7655C21.6723 2.83185 21.5246 2.92962 21.4 3.05319L17.6266 6.82653L3.05331 21.3999C2.92974 21.5244 2.83197 21.6722 2.76562 21.8346C2.69927 21.9971 2.66563 22.1711 2.66665 22.3465V27.9999C2.66665 28.3535 2.80712 28.6926 3.05717 28.9427C3.30722 29.1927 3.64636 29.3332 3.99998 29.3332H9.65331C9.83988 29.3433 10.0265 29.3142 10.2011 29.2475C10.3756 29.1809 10.5343 29.0784 10.6666 28.9465L25.16 14.3732L28.9466 10.6665C29.0683 10.5373 29.1675 10.3886 29.24 10.2265C29.2528 10.1202 29.2528 10.0128 29.24 9.90653C29.2462 9.84446 29.2462 9.78192 29.24 9.71986L29.3333 9.65319ZM9.10665 26.6665H5.33331V22.8932L18.5733 9.65319L22.3466 13.4265L9.10665 26.6665ZM24.2266 11.5465L20.4533 7.77319L22.3466 5.89319L26.1066 9.65319L24.2266 11.5465Z" fill="#A53DFF"/>
</svg>
