<?xml version="1.0" standalone="no"?>
<svg xmlns:xlink="http://www.w3.org/1999/xlink" xmlns="http://www.w3.org/2000/svg" id="svg" width="1276" height="409.82142857142856" style="height: auto;"><path fill="#6af8bd" d="M0,36 a36,36 0 0 1 36,-36 h2 a1,1 0 0 1 1,1 v47 a36,36 0 0 1 -36,36 h-2 a1,1 0 0 1 -1,-1 v-47 z"></path><path fill="#00c982" d="M0,92 a1,1 0 0 1 1,-1 h37 a1,1 0 0 1 1,1 v37 a1,1 0 0 1 -1,1 h-37 a1,1 0 0 1 -1,-1 v-37 z"></path><path fill="#00c982" d="M0,138 a1,1 0 0 1 1,-1 h2 a36,36 0 0 1 36,36 v47 a1,1 0 0 1 -1,1 h-37 a1,1 0 0 1 -1,-1 v-82 z"></path><path fill="#00c982" d="M0,264 a36,36 0 0 1 36,-36 h2 a1,1 0 0 1 1,1 v82 a1,1 0 0 1 -1,1 h-2 a36,36 0 0 1 -36,-36 v-12 z"></path><path fill="#009c82" d="M0,320 a1,1 0 0 1 1,-1 h37 a1,1 0 0 1 1,1 v82 a1,1 0 0 1 -1,1 h-2 a36,36 0 0 1 -36,-36 v-47 z"></path><path fill="#009c82" d="M46,1 a1,1 0 0 1 1,-1 h2 a36,36 0 0 1 36,36 v47 a1,1 0 0 1 -1,1 h-2 a36,36 0 0 1 -36,-36 v-47 z"></path><path fill="#00c982" d="M46,127 a36,36 0 0 1 36,-36 h2 a1,1 0 0 1 1,1 v82 a1,1 0 0 1 -1,1 h-37 a1,1 0 0 1 -1,-1 v-47 z"></path><path fill="#009c82" d="M46,183 a1,1 0 0 1 1,-1 h37 a1,1 0 0 1 1,1 v37 a1,1 0 0 1 -1,1 h-2 a36,36 0 0 1 -36,-36 v-2 z"></path><path fill="#00c982" d="M46,229 a1,1 0 0 1 1,-1 h2 a36,36 0 0 1 36,36 v47 a1,1 0 0 1 -1,1 h-37 a1,1 0 0 1 -1,-1 v-82 z"></path><path fill="#00c982" d="M46,320 a1,1 0 0 1 1,-1 h37 a1,1 0 0 1 1,1 v82 a1,1 0 0 1 -1,1 h-37 a1,1 0 0 1 -1,-1 v-82 z"></path><path fill="#009c82" d="M91,1 a1,1 0 0 1 1,-1 h37 a1,1 0 0 1 1,1 v37 a1,1 0 0 1 -1,1 h-37 a1,1 0 0 1 -1,-1 v-37 z"></path><path fill="#009c82" d="M91,47 a1,1 0 0 1 1,-1 h82 a1,1 0 0 1 1,1 v2 a36,36 0 0 1 -36,36 h-47 a1,1 0 0 1 -1,-1 v-37 z"></path><path fill="#6af8bd" d="M91,127 a36,36 0 0 1 36,-36 h2 a1,1 0 0 1 1,1 v82 a1,1 0 0 1 -1,1 h-37 a1,1 0 0 1 -1,-1 v-47 z"></path><path fill="#6af8bd" d="M91,183 a1,1 0 0 1 1,-1 h47 a36,36 0 0 1 36,36 v2 a1,1 0 0 1 -1,1 h-82 a1,1 0 0 1 -1,-1 v-37 z"></path><path fill="#009c82" d="M91,229 a1,1 0 0 1 1,-1 h37 a1,1 0 0 1 1,1 v82 a1,1 0 0 1 -1,1 h-37 a1,1 0 0 1 -1,-1 v-82 z"></path><path fill="#6af8bd" d="M91,320 a1,1 0 0 1 1,-1 h47 a36,36 0 0 1 36,36 v2 a1,1 0 0 1 -1,1 h-47 a36,36 0 0 1 -36,-36 v-2 z"></path><path fill="#6af8bd" d="M91,365 a1,1 0 0 1 1,-1 h37 a1,1 0 0 1 1,1 v37 a1,1 0 0 1 -1,1 h-2 a36,36 0 0 1 -36,-36 v-2 z"></path><path fill="#00c982" d="M137,1 a1,1 0 0 1 1,-1 h82 a1,1 0 0 1 1,1 v2 a36,36 0 0 1 -36,36 h-47 a1,1 0 0 1 -1,-1 v-37 z"></path><path fill="#6af8bd" d="M137,92 a1,1 0 0 1 1,-1 h82 a1,1 0 0 1 1,1 v37 a1,1 0 0 1 -1,1 h-82 a1,1 0 0 1 -1,-1 v-37 z"></path><path fill="#00c982" d="M137,138 a1,1 0 0 1 1,-1 h37 a1,1 0 0 1 1,1 v37 a1,1 0 0 1 -1,1 h-37 a1,1 0 0 1 -1,-1 v-37 z"></path><path fill="#009c82" d="M137,229 a1,1 0 0 1 1,-1 h37 a1,1 0 0 1 1,1 v82 a1,1 0 0 1 -1,1 h-37 a1,1 0 0 1 -1,-1 v-82 z"></path><path fill="#6af8bd" d="M137,365 a1,1 0 0 1 1,-1 h2 a36,36 0 0 1 36,36 v2 a1,1 0 0 1 -1,1 h-37 a1,1 0 0 1 -1,-1 v-37 z"></path><path fill="#6af8bd" d="M182,47 a1,1 0 0 1 1,-1 h82 a1,1 0 0 1 1,1 v2 a36,36 0 0 1 -36,36 h-12 a36,36 0 0 1 -36,-36 v-2 z"></path><path fill="#6af8bd" d="M182,173 a36,36 0 0 1 36,-36 h2 a1,1 0 0 1 1,1 v47 a36,36 0 0 1 -36,36 h-2 a1,1 0 0 1 -1,-1 v-47 z"></path><path fill="#009c82" d="M182,229 a1,1 0 0 1 1,-1 h37 a1,1 0 0 1 1,1 v82 a1,1 0 0 1 -1,1 h-37 a1,1 0 0 1 -1,-1 v-82 z"></path><path fill="#009c82" d="M182,355 a36,36 0 0 1 36,-36 h2 a1,1 0 0 1 1,1 v37 a1,1 0 0 1 -1,1 h-37 a1,1 0 0 1 -1,-1 v-2 z"></path><path fill="#6af8bd" d="M182,400 a36,36 0 0 1 36,-36 h2 a1,1 0 0 1 1,1 v37 a1,1 0 0 1 -1,1 h-37 a1,1 0 0 1 -1,-1 v-2 z"></path><path fill="#6af8bd" d="M228,36 a36,36 0 0 1 36,-36 h12 a36,36 0 0 1 36,36 v2 a1,1 0 0 1 -1,1 h-82 a1,1 0 0 1 -1,-1 v-2 z"></path><path fill="#00c982" d="M228,127 a36,36 0 0 1 36,-36 h2 a1,1 0 0 1 1,1 v47 a36,36 0 0 1 -36,36 h-2 a1,1 0 0 1 -1,-1 v-47 z"></path><path fill="#009c82" d="M228,218 a36,36 0 0 1 36,-36 h2 a1,1 0 0 1 1,1 v82 a1,1 0 0 1 -1,1 h-37 a1,1 0 0 1 -1,-1 v-47 z"></path><path fill="#009c82" d="M228,309 a36,36 0 0 1 36,-36 h47 a1,1 0 0 1 1,1 v2 a36,36 0 0 1 -36,36 h-47 a1,1 0 0 1 -1,-1 v-2 z"></path><path fill="#6af8bd" d="M228,320 a1,1 0 0 1 1,-1 h2 a36,36 0 0 1 36,36 v47 a1,1 0 0 1 -1,1 h-37 a1,1 0 0 1 -1,-1 v-82 z"></path><path fill="#009c82" d="M273,82 a36,36 0 0 1 36,-36 h47 a1,1 0 0 1 1,1 v2 a36,36 0 0 1 -36,36 h-47 a1,1 0 0 1 -1,-1 v-2 z"></path><path fill="#009c82" d="M273,92 a1,1 0 0 1 1,-1 h2 a36,36 0 0 1 36,36 v47 a1,1 0 0 1 -1,1 h-37 a1,1 0 0 1 -1,-1 v-82 z"></path><path fill="#6af8bd" d="M273,183 a1,1 0 0 1 1,-1 h82 a1,1 0 0 1 1,1 v2 a36,36 0 0 1 -36,36 h-12 a36,36 0 0 1 -36,-36 v-2 z"></path><path fill="#6af8bd" d="M273,229 a1,1 0 0 1 1,-1 h82 a1,1 0 0 1 1,1 v2 a36,36 0 0 1 -36,36 h-12 a36,36 0 0 1 -36,-36 v-2 z"></path><path fill="#009c82" d="M273,320 a1,1 0 0 1 1,-1 h2 a36,36 0 0 1 36,36 v12 a36,36 0 0 1 -36,36 h-2 a1,1 0 0 1 -1,-1 v-82 z"></path><path fill="#6af8bd" d="M319,1 a1,1 0 0 1 1,-1 h47 a36,36 0 0 1 36,36 v2 a1,1 0 0 1 -1,1 h-82 a1,1 0 0 1 -1,-1 v-37 z"></path><path fill="#6af8bd" d="M319,92 a1,1 0 0 1 1,-1 h37 a1,1 0 0 1 1,1 v37 a1,1 0 0 1 -1,1 h-2 a36,36 0 0 1 -36,-36 v-2 z"></path><path fill="#00c982" d="M319,173 a36,36 0 0 1 36,-36 h2 a1,1 0 0 1 1,1 v37 a1,1 0 0 1 -1,1 h-37 a1,1 0 0 1 -1,-1 v-2 z"></path><path fill="#6af8bd" d="M319,274 a1,1 0 0 1 1,-1 h47 a36,36 0 0 1 36,36 v2 a1,1 0 0 1 -1,1 h-47 a36,36 0 0 1 -36,-36 v-2 z"></path><path fill="#6af8bd" d="M319,320 a1,1 0 0 1 1,-1 h2 a36,36 0 0 1 36,36 v12 a36,36 0 0 1 -36,36 h-2 a1,1 0 0 1 -1,-1 v-82 z"></path><path fill="#009c82" d="M364,47 a1,1 0 0 1 1,-1 h82 a1,1 0 0 1 1,1 v37 a1,1 0 0 1 -1,1 h-47 a36,36 0 0 1 -36,-36 v-2 z"></path><path fill="#00c982" d="M364,92 a1,1 0 0 1 1,-1 h82 a1,1 0 0 1 1,1 v37 a1,1 0 0 1 -1,1 h-82 a1,1 0 0 1 -1,-1 v-37 z"></path><path fill="#6af8bd" d="M364,173 a36,36 0 0 1 36,-36 h12 a36,36 0 0 1 36,36 v2 a1,1 0 0 1 -1,1 h-82 a1,1 0 0 1 -1,-1 v-2 z"></path><path fill="#009c82" d="M364,183 a1,1 0 0 1 1,-1 h2 a36,36 0 0 1 36,36 v47 a1,1 0 0 1 -1,1 h-37 a1,1 0 0 1 -1,-1 v-82 z"></path><path fill="#6af8bd" d="M364,320 a1,1 0 0 1 1,-1 h82 a1,1 0 0 1 1,1 v2 a36,36 0 0 1 -36,36 h-47 a1,1 0 0 1 -1,-1 v-37 z"></path><path fill="#6af8bd" d="M364,365 a1,1 0 0 1 1,-1 h37 a1,1 0 0 1 1,1 v37 a1,1 0 0 1 -1,1 h-2 a36,36 0 0 1 -36,-36 v-2 z"></path><path fill="#6af8bd" d="M410,36 a36,36 0 0 1 36,-36 h47 a1,1 0 0 1 1,1 v37 a1,1 0 0 1 -1,1 h-82 a1,1 0 0 1 -1,-1 v-2 z"></path><path fill="#6af8bd" d="M410,183 a1,1 0 0 1 1,-1 h37 a1,1 0 0 1 1,1 v47 a36,36 0 0 1 -36,36 h-2 a1,1 0 0 1 -1,-1 v-82 z"></path><path fill="#009c82" d="M410,274 a1,1 0 0 1 1,-1 h37 a1,1 0 0 1 1,1 v2 a36,36 0 0 1 -36,36 h-2 a1,1 0 0 1 -1,-1 v-37 z"></path><path fill="#6af8bd" d="M410,365 a1,1 0 0 1 1,-1 h37 a1,1 0 0 1 1,1 v37 a1,1 0 0 1 -1,1 h-37 a1,1 0 0 1 -1,-1 v-37 z"></path><path fill="#009c82" d="M455,82 a36,36 0 0 1 36,-36 h47 a1,1 0 0 1 1,1 v37 a1,1 0 0 1 -1,1 h-82 a1,1 0 0 1 -1,-1 v-2 z"></path><path fill="#6af8bd" d="M455,92 a1,1 0 0 1 1,-1 h47 a36,36 0 0 1 36,36 v2 a1,1 0 0 1 -1,1 h-82 a1,1 0 0 1 -1,-1 v-37 z"></path><path fill="#00c982" d="M455,138 a1,1 0 0 1 1,-1 h47 a36,36 0 0 1 36,36 v2 a1,1 0 0 1 -1,1 h-47 a36,36 0 0 1 -36,-36 v-2 z"></path><path fill="#009c82" d="M455,183 a1,1 0 0 1 1,-1 h37 a1,1 0 0 1 1,1 v2 a36,36 0 0 1 -36,36 h-2 a1,1 0 0 1 -1,-1 v-37 z"></path><path fill="#00c982" d="M455,264 a36,36 0 0 1 36,-36 h2 a1,1 0 0 1 1,1 v82 a1,1 0 0 1 -1,1 h-37 a1,1 0 0 1 -1,-1 v-47 z"></path><path fill="#6af8bd" d="M455,320 a1,1 0 0 1 1,-1 h82 a1,1 0 0 1 1,1 v2 a36,36 0 0 1 -36,36 h-12 a36,36 0 0 1 -36,-36 v-2 z"></path><path fill="#6af8bd" d="M455,365 a1,1 0 0 1 1,-1 h2 a36,36 0 0 1 36,36 v2 a1,1 0 0 1 -1,1 h-37 a1,1 0 0 1 -1,-1 v-37 z"></path><path fill="#009c82" d="M501,1 a1,1 0 0 1 1,-1 h2 a36,36 0 0 1 36,36 v2 a1,1 0 0 1 -1,1 h-37 a1,1 0 0 1 -1,-1 v-37 z"></path><path fill="#00c982" d="M501,183 a1,1 0 0 1 1,-1 h37 a1,1 0 0 1 1,1 v82 a1,1 0 0 1 -1,1 h-37 a1,1 0 0 1 -1,-1 v-82 z"></path><path fill="#6af8bd" d="M501,292 a19,19 0 0 1 19,-19 h1 a19,19 0 0 1 19,19 v1 a19,19 0 0 1 -19,19 h-1 a19,19 0 0 1 -19,-19 v-1 z"></path><path fill="#6af8bd" d="M501,365 a1,1 0 0 1 1,-1 h37 a1,1 0 0 1 1,1 v37 a1,1 0 0 1 -1,1 h-37 a1,1 0 0 1 -1,-1 v-37 z"></path><path fill="#00c982" d="M546,1 a1,1 0 0 1 1,-1 h2 a36,36 0 0 1 36,36 v47 a1,1 0 0 1 -1,1 h-2 a36,36 0 0 1 -36,-36 v-47 z"></path><path fill="#6af8bd" d="M546,92 a1,1 0 0 1 1,-1 h47 a36,36 0 0 1 36,36 v2 a1,1 0 0 1 -1,1 h-82 a1,1 0 0 1 -1,-1 v-37 z"></path><path fill="#009c82" d="M546,138 a1,1 0 0 1 1,-1 h37 a1,1 0 0 1 1,1 v82 a1,1 0 0 1 -1,1 h-37 a1,1 0 0 1 -1,-1 v-82 z"></path><path fill="#00c982" d="M546,264 a36,36 0 0 1 36,-36 h2 a1,1 0 0 1 1,1 v82 a1,1 0 0 1 -1,1 h-37 a1,1 0 0 1 -1,-1 v-47 z"></path><path fill="#009c82" d="M546,320 a1,1 0 0 1 1,-1 h37 a1,1 0 0 1 1,1 v37 a1,1 0 0 1 -1,1 h-37 a1,1 0 0 1 -1,-1 v-37 z"></path><path fill="#6af8bd" d="M546,365 a1,1 0 0 1 1,-1 h37 a1,1 0 0 1 1,1 v37 a1,1 0 0 1 -1,1 h-37 a1,1 0 0 1 -1,-1 v-37 z"></path><path fill="#009c82" d="M592,1 a1,1 0 0 1 1,-1 h82 a1,1 0 0 1 1,1 v2 a36,36 0 0 1 -36,36 h-12 a36,36 0 0 1 -36,-36 v-2 z"></path><path fill="#009c82" d="M592,82 a36,36 0 0 1 36,-36 h47 a1,1 0 0 1 1,1 v2 a36,36 0 0 1 -36,36 h-47 a1,1 0 0 1 -1,-1 v-2 z"></path><path fill="#6af8bd" d="M592,138 a1,1 0 0 1 1,-1 h47 a36,36 0 0 1 36,36 v2 a1,1 0 0 1 -1,1 h-47 a36,36 0 0 1 -36,-36 v-2 z"></path><path fill="#6af8bd" d="M592,183 a1,1 0 0 1 1,-1 h2 a36,36 0 0 1 36,36 v47 a1,1 0 0 1 -1,1 h-2 a36,36 0 0 1 -36,-36 v-47 z"></path><path fill="#6af8bd" d="M592,274 a1,1 0 0 1 1,-1 h2 a36,36 0 0 1 36,36 v12 a36,36 0 0 1 -36,36 h-2 a1,1 0 0 1 -1,-1 v-82 z"></path><path fill="#6af8bd" d="M592,400 a36,36 0 0 1 36,-36 h2 a1,1 0 0 1 1,1 v37 a1,1 0 0 1 -1,1 h-37 a1,1 0 0 1 -1,-1 v-2 z"></path><path fill="#6af8bd" d="M638,92 a1,1 0 0 1 1,-1 h82 a1,1 0 0 1 1,1 v37 a1,1 0 0 1 -1,1 h-47 a36,36 0 0 1 -36,-36 v-2 z"></path><path fill="#00c982" d="M638,201 a19,19 0 0 1 19,-19 h1 a19,19 0 0 1 19,19 v1 a19,19 0 0 1 -19,19 h-1 a19,19 0 0 1 -19,-19 v-1 z"></path><path fill="#009c82" d="M638,229 a1,1 0 0 1 1,-1 h82 a1,1 0 0 1 1,1 v37 a1,1 0 0 1 -1,1 h-82 a1,1 0 0 1 -1,-1 v-37 z"></path><path fill="#00c982" d="M638,309 a36,36 0 0 1 36,-36 h47 a1,1 0 0 1 1,1 v37 a1,1 0 0 1 -1,1 h-82 a1,1 0 0 1 -1,-1 v-2 z"></path><path fill="#00c982" d="M638,320 a1,1 0 0 1 1,-1 h82 a1,1 0 0 1 1,1 v37 a1,1 0 0 1 -1,1 h-47 a36,36 0 0 1 -36,-36 v-2 z"></path><path fill="#00c982" d="M638,400 a36,36 0 0 1 36,-36 h2 a1,1 0 0 1 1,1 v37 a1,1 0 0 1 -1,1 h-37 a1,1 0 0 1 -1,-1 v-2 z"></path><path fill="#009c82" d="M683,36 a36,36 0 0 1 36,-36 h2 a1,1 0 0 1 1,1 v82 a1,1 0 0 1 -1,1 h-2 a36,36 0 0 1 -36,-36 v-12 z"></path><path fill="#009c82" d="M683,138 a1,1 0 0 1 1,-1 h2 a36,36 0 0 1 36,36 v47 a1,1 0 0 1 -1,1 h-2 a36,36 0 0 1 -36,-36 v-47 z"></path><path fill="#00c982" d="M683,365 a1,1 0 0 1 1,-1 h2 a36,36 0 0 1 36,36 v2 a1,1 0 0 1 -1,1 h-37 a1,1 0 0 1 -1,-1 v-37 z"></path><path fill="#009c82" d="M729,36 a36,36 0 0 1 36,-36 h2 a1,1 0 0 1 1,1 v82 a1,1 0 0 1 -1,1 h-37 a1,1 0 0 1 -1,-1 v-47 z"></path><path fill="#009c82" d="M729,92 a1,1 0 0 1 1,-1 h2 a36,36 0 0 1 36,36 v47 a1,1 0 0 1 -1,1 h-2 a36,36 0 0 1 -36,-36 v-47 z"></path><path fill="#6af8bd" d="M729,183 a1,1 0 0 1 1,-1 h82 a1,1 0 0 1 1,1 v37 a1,1 0 0 1 -1,1 h-47 a36,36 0 0 1 -36,-36 v-2 z"></path><path fill="#009c82" d="M729,229 a1,1 0 0 1 1,-1 h47 a36,36 0 0 1 36,36 v2 a1,1 0 0 1 -1,1 h-47 a36,36 0 0 1 -36,-36 v-2 z"></path><path fill="#00c982" d="M729,309 a36,36 0 0 1 36,-36 h2 a1,1 0 0 1 1,1 v82 a1,1 0 0 1 -1,1 h-2 a36,36 0 0 1 -36,-36 v-12 z"></path><path fill="#009c82" d="M729,365 a1,1 0 0 1 1,-1 h37 a1,1 0 0 1 1,1 v37 a1,1 0 0 1 -1,1 h-2 a36,36 0 0 1 -36,-36 v-2 z"></path><path fill="#009c82" d="M774,1 a1,1 0 0 1 1,-1 h2 a36,36 0 0 1 36,36 v47 a1,1 0 0 1 -1,1 h-37 a1,1 0 0 1 -1,-1 v-82 z"></path><path fill="#6af8bd" d="M774,92 a1,1 0 0 1 1,-1 h37 a1,1 0 0 1 1,1 v82 a1,1 0 0 1 -1,1 h-37 a1,1 0 0 1 -1,-1 v-82 z"></path><path fill="#00c982" d="M774,274 a1,1 0 0 1 1,-1 h37 a1,1 0 0 1 1,1 v82 a1,1 0 0 1 -1,1 h-37 a1,1 0 0 1 -1,-1 v-82 z"></path><path fill="#6af8bd" d="M774,365 a1,1 0 0 1 1,-1 h37 a1,1 0 0 1 1,1 v37 a1,1 0 0 1 -1,1 h-37 a1,1 0 0 1 -1,-1 v-37 z"></path><path fill="#00c982" d="M820,1 a1,1 0 0 1 1,-1 h2 a36,36 0 0 1 36,36 v47 a1,1 0 0 1 -1,1 h-37 a1,1 0 0 1 -1,-1 v-82 z"></path><path fill="#009c82" d="M820,127 a36,36 0 0 1 36,-36 h2 a1,1 0 0 1 1,1 v82 a1,1 0 0 1 -1,1 h-37 a1,1 0 0 1 -1,-1 v-47 z"></path><path fill="#00c982" d="M820,183 a1,1 0 0 1 1,-1 h2 a36,36 0 0 1 36,36 v12 a36,36 0 0 1 -36,36 h-2 a1,1 0 0 1 -1,-1 v-82 z"></path><path fill="#6af8bd" d="M820,274 a1,1 0 0 1 1,-1 h37 a1,1 0 0 1 1,1 v82 a1,1 0 0 1 -1,1 h-2 a36,36 0 0 1 -36,-36 v-47 z"></path><path fill="#009c82" d="M820,365 a1,1 0 0 1 1,-1 h37 a1,1 0 0 1 1,1 v37 a1,1 0 0 1 -1,1 h-2 a36,36 0 0 1 -36,-36 v-2 z"></path><path fill="#009c82" d="M865,36 a36,36 0 0 1 36,-36 h47 a1,1 0 0 1 1,1 v37 a1,1 0 0 1 -1,1 h-82 a1,1 0 0 1 -1,-1 v-2 z"></path><path fill="#009c82" d="M865,82 a36,36 0 0 1 36,-36 h47 a1,1 0 0 1 1,1 v37 a1,1 0 0 1 -1,1 h-82 a1,1 0 0 1 -1,-1 v-2 z"></path><path fill="#6af8bd" d="M865,92 a1,1 0 0 1 1,-1 h2 a36,36 0 0 1 36,36 v12 a36,36 0 0 1 -36,36 h-2 a1,1 0 0 1 -1,-1 v-82 z"></path><path fill="#6af8bd" d="M865,183 a1,1 0 0 1 1,-1 h37 a1,1 0 0 1 1,1 v47 a36,36 0 0 1 -36,36 h-2 a1,1 0 0 1 -1,-1 v-82 z"></path><path fill="#6af8bd" d="M865,274 a1,1 0 0 1 1,-1 h82 a1,1 0 0 1 1,1 v37 a1,1 0 0 1 -1,1 h-82 a1,1 0 0 1 -1,-1 v-37 z"></path><path fill="#009c82" d="M865,320 a1,1 0 0 1 1,-1 h47 a36,36 0 0 1 36,36 v2 a1,1 0 0 1 -1,1 h-82 a1,1 0 0 1 -1,-1 v-37 z"></path><path fill="#009c82" d="M865,400 a36,36 0 0 1 36,-36 h2 a1,1 0 0 1 1,1 v37 a1,1 0 0 1 -1,1 h-37 a1,1 0 0 1 -1,-1 v-2 z"></path><path fill="#6af8bd" d="M911,92 a1,1 0 0 1 1,-1 h47 a36,36 0 0 1 36,36 v2 a1,1 0 0 1 -1,1 h-47 a36,36 0 0 1 -36,-36 v-2 z"></path><path fill="#009c82" d="M911,173 a36,36 0 0 1 36,-36 h2 a1,1 0 0 1 1,1 v47 a36,36 0 0 1 -36,36 h-2 a1,1 0 0 1 -1,-1 v-47 z"></path><path fill="#00c982" d="M911,229 a1,1 0 0 1 1,-1 h82 a1,1 0 0 1 1,1 v37 a1,1 0 0 1 -1,1 h-47 a36,36 0 0 1 -36,-36 v-2 z"></path><path fill="#009c82" d="M911,365 a1,1 0 0 1 1,-1 h37 a1,1 0 0 1 1,1 v2 a36,36 0 0 1 -36,36 h-2 a1,1 0 0 1 -1,-1 v-37 z"></path><path fill="#00c982" d="M956,1 a1,1 0 0 1 1,-1 h82 a1,1 0 0 1 1,1 v37 a1,1 0 0 1 -1,1 h-47 a36,36 0 0 1 -36,-36 v-2 z"></path><path fill="#6af8bd" d="M956,47 a1,1 0 0 1 1,-1 h82 a1,1 0 0 1 1,1 v2 a36,36 0 0 1 -36,36 h-47 a1,1 0 0 1 -1,-1 v-37 z"></path><path fill="#6af8bd" d="M956,138 a1,1 0 0 1 1,-1 h37 a1,1 0 0 1 1,1 v82 a1,1 0 0 1 -1,1 h-37 a1,1 0 0 1 -1,-1 v-82 z"></path><path fill="#009c82" d="M956,274 a1,1 0 0 1 1,-1 h37 a1,1 0 0 1 1,1 v2 a36,36 0 0 1 -36,36 h-2 a1,1 0 0 1 -1,-1 v-37 z"></path><path fill="#00c982" d="M956,355 a36,36 0 0 1 36,-36 h12 a36,36 0 0 1 36,36 v2 a1,1 0 0 1 -1,1 h-82 a1,1 0 0 1 -1,-1 v-2 z"></path><path fill="#6af8bd" d="M956,365 a1,1 0 0 1 1,-1 h37 a1,1 0 0 1 1,1 v37 a1,1 0 0 1 -1,1 h-37 a1,1 0 0 1 -1,-1 v-37 z"></path><path fill="#6af8bd" d="M1002,92 a1,1 0 0 1 1,-1 h37 a1,1 0 0 1 1,1 v37 a1,1 0 0 1 -1,1 h-2 a36,36 0 0 1 -36,-36 v-2 z"></path><path fill="#009c82" d="M1002,138 a1,1 0 0 1 1,-1 h82 a1,1 0 0 1 1,1 v2 a36,36 0 0 1 -36,36 h-12 a36,36 0 0 1 -36,-36 v-2 z"></path><path fill="#6af8bd" d="M1002,218 a36,36 0 0 1 36,-36 h47 a1,1 0 0 1 1,1 v37 a1,1 0 0 1 -1,1 h-82 a1,1 0 0 1 -1,-1 v-2 z"></path><path fill="#00c982" d="M1002,264 a36,36 0 0 1 36,-36 h47 a1,1 0 0 1 1,1 v2 a36,36 0 0 1 -36,36 h-47 a1,1 0 0 1 -1,-1 v-2 z"></path><path fill="#00c982" d="M1002,274 a1,1 0 0 1 1,-1 h82 a1,1 0 0 1 1,1 v2 a36,36 0 0 1 -36,36 h-47 a1,1 0 0 1 -1,-1 v-37 z"></path><path fill="#6af8bd" d="M1002,365 a1,1 0 0 1 1,-1 h37 a1,1 0 0 1 1,1 v37 a1,1 0 0 1 -1,1 h-2 a36,36 0 0 1 -36,-36 v-2 z"></path><path fill="#009c82" d="M1047,1 a1,1 0 0 1 1,-1 h37 a1,1 0 0 1 1,1 v37 a1,1 0 0 1 -1,1 h-37 a1,1 0 0 1 -1,-1 v-37 z"></path><path fill="#009c82" d="M1047,82 a36,36 0 0 1 36,-36 h2 a1,1 0 0 1 1,1 v82 a1,1 0 0 1 -1,1 h-37 a1,1 0 0 1 -1,-1 v-47 z"></path><path fill="#009c82" d="M1047,320 a1,1 0 0 1 1,-1 h37 a1,1 0 0 1 1,1 v82 a1,1 0 0 1 -1,1 h-2 a36,36 0 0 1 -36,-36 v-47 z"></path><path fill="#009c82" d="M1093,1 a1,1 0 0 1 1,-1 h82 a1,1 0 0 1 1,1 v2 a36,36 0 0 1 -36,36 h-47 a1,1 0 0 1 -1,-1 v-37 z"></path><path fill="#009c82" d="M1093,47 a1,1 0 0 1 1,-1 h47 a36,36 0 0 1 36,36 v2 a1,1 0 0 1 -1,1 h-47 a36,36 0 0 1 -36,-36 v-2 z"></path><path fill="#009c82" d="M1093,127 a36,36 0 0 1 36,-36 h47 a1,1 0 0 1 1,1 v37 a1,1 0 0 1 -1,1 h-82 a1,1 0 0 1 -1,-1 v-2 z"></path><path fill="#00c982" d="M1093,138 a1,1 0 0 1 1,-1 h47 a36,36 0 0 1 36,36 v2 a1,1 0 0 1 -1,1 h-82 a1,1 0 0 1 -1,-1 v-37 z"></path><path fill="#009c82" d="M1093,218 a36,36 0 0 1 36,-36 h47 a1,1 0 0 1 1,1 v2 a36,36 0 0 1 -36,36 h-47 a1,1 0 0 1 -1,-1 v-2 z"></path><path fill="#009c82" d="M1093,229 a1,1 0 0 1 1,-1 h82 a1,1 0 0 1 1,1 v2 a36,36 0 0 1 -36,36 h-12 a36,36 0 0 1 -36,-36 v-2 z"></path><path fill="#009c82" d="M1093,274 a1,1 0 0 1 1,-1 h37 a1,1 0 0 1 1,1 v47 a36,36 0 0 1 -36,36 h-2 a1,1 0 0 1 -1,-1 v-82 z"></path><path fill="#6af8bd" d="M1093,383 a19,19 0 0 1 19,-19 h1 a19,19 0 0 1 19,19 v1 a19,19 0 0 1 -19,19 h-1 a19,19 0 0 1 -19,-19 v-1 z"></path><path fill="#009c82" d="M1138,274 a1,1 0 0 1 1,-1 h82 a1,1 0 0 1 1,1 v37 a1,1 0 0 1 -1,1 h-47 a36,36 0 0 1 -36,-36 v-2 z"></path><path fill="#009c82" d="M1138,355 a36,36 0 0 1 36,-36 h2 a1,1 0 0 1 1,1 v82 a1,1 0 0 1 -1,1 h-2 a36,36 0 0 1 -36,-36 v-12 z"></path><path fill="#6af8bd" d="M1184,36 a36,36 0 0 1 36,-36 h2 a1,1 0 0 1 1,1 v47 a36,36 0 0 1 -36,36 h-2 a1,1 0 0 1 -1,-1 v-47 z"></path><path fill="#6af8bd" d="M1184,92 a1,1 0 0 1 1,-1 h37 a1,1 0 0 1 1,1 v82 a1,1 0 0 1 -1,1 h-37 a1,1 0 0 1 -1,-1 v-82 z"></path><path fill="#00c982" d="M1184,183 a1,1 0 0 1 1,-1 h82 a1,1 0 0 1 1,1 v2 a36,36 0 0 1 -36,36 h-47 a1,1 0 0 1 -1,-1 v-37 z"></path><path fill="#00c982" d="M1184,229 a1,1 0 0 1 1,-1 h47 a36,36 0 0 1 36,36 v2 a1,1 0 0 1 -1,1 h-82 a1,1 0 0 1 -1,-1 v-37 z"></path><path fill="#009c82" d="M1184,320 a1,1 0 0 1 1,-1 h2 a36,36 0 0 1 36,36 v47 a1,1 0 0 1 -1,1 h-2 a36,36 0 0 1 -36,-36 v-47 z"></path><path fill="#00c982" d="M1229,1 a1,1 0 0 1 1,-1 h37 a1,1 0 0 1 1,1 v37 a1,1 0 0 1 -1,1 h-2 a36,36 0 0 1 -36,-36 v-2 z"></path><path fill="#009c82" d="M1229,47 a1,1 0 0 1 1,-1 h37 a1,1 0 0 1 1,1 v37 a1,1 0 0 1 -1,1 h-37 a1,1 0 0 1 -1,-1 v-37 z"></path><path fill="#009c82" d="M1229,110 a19,19 0 0 1 19,-19 h1 a19,19 0 0 1 19,19 v1 a19,19 0 0 1 -19,19 h-1 a19,19 0 0 1 -19,-19 v-1 z"></path><path fill="#00c982" d="M1229,138 a1,1 0 0 1 1,-1 h37 a1,1 0 0 1 1,1 v37 a1,1 0 0 1 -1,1 h-37 a1,1 0 0 1 -1,-1 v-37 z"></path><path fill="#009c82" d="M1229,274 a1,1 0 0 1 1,-1 h37 a1,1 0 0 1 1,1 v37 a1,1 0 0 1 -1,1 h-2 a36,36 0 0 1 -36,-36 v-2 z"></path><path fill="#00c982" d="M1229,320 a1,1 0 0 1 1,-1 h2 a36,36 0 0 1 36,36 v2 a1,1 0 0 1 -1,1 h-37 a1,1 0 0 1 -1,-1 v-37 z"></path><path fill="#00c982" d="M1229,400 a36,36 0 0 1 36,-36 h2 a1,1 0 0 1 1,1 v37 a1,1 0 0 1 -1,1 h-37 a1,1 0 0 1 -1,-1 v-2 z"></path></svg>